<svg width="192" height="182" viewBox="0 0 192 182" fill="none" xmlns="http://www.w3.org/2000/svg">
<path d="M168.213 17.217C166.841 11.9371 165.012 7.80503 162.497 4.82075C159.982 1.60692 156.552 0 152.893 0C147.177 0 143.061 4.36164 140.317 7.57547C136.659 11.9371 133 18.1352 128.655 25.022C115.393 5.73899 103.503 1.60692 95.7287 1.60692C95.7287 1.60692 95.7287 1.60692 95.5 1.60692C95.5 1.60692 95.5 1.60692 95.2713 1.60692C87.4969 1.60692 75.3781 5.73899 62.1159 25.022C57.7713 17.9057 54.1128 11.7075 50.4543 7.57547C47.939 4.36164 43.8232 0 38.1067 0C34.4482 0 31.0183 1.60692 28.503 4.82075C25.9878 7.57547 24.1585 11.9371 22.7866 17.217C20.7287 25.7107 20.5 34.6635 20.5 36.5C20.5 38.3365 20.5 47.2893 22.7866 55.783C24.1585 61.0629 25.9878 65.195 28.503 68.1793C31.247 71.3931 34.4482 72.7704 38.3354 72.7704C38.7927 72.7704 39.4787 72.7704 39.4787 72.7704C43.5945 72.3113 47.4817 69.7862 52.0549 64.0472C55.4848 59.9151 58.9146 54.1761 62.3445 48.2076C66.689 54.6352 70.8049 59.6855 74.9207 63.5881C81.5518 69.7862 88.6402 73 95.5 73C102.588 73 109.448 69.7862 116.079 63.5881C120.195 59.6855 124.311 54.8648 128.655 48.2076C132.314 54.1761 135.744 59.9151 138.945 64.0472C143.29 69.5566 147.405 72.0818 151.521 72.7704C151.75 72.7704 152.436 72.7704 152.665 72.7704C156.323 72.7704 159.753 71.3931 162.497 68.1793C165.012 65.195 166.841 61.0629 168.213 55.783C170.271 47.2893 170.5 38.3365 170.5 36.5C170.5 34.6635 170.271 25.7107 168.213 17.217ZM53.4268 38.7956C52.2835 41.0912 50.4543 44.5346 48.3963 47.7484C46.1098 51.4214 44.0518 54.4057 42.2226 56.4717C41.3079 57.6195 40.3933 58.5377 39.4787 58.9969C38.7927 59.456 38.3354 59.6855 38.3354 59.6855C38.3354 59.6855 38.3354 59.6855 38.1067 59.456C37.878 59.2264 37.6494 58.7673 36.9634 58.0786C36.2774 56.4717 35.3628 54.1761 34.6768 51.4214C33.5335 45.9119 32.8476 39.4843 32.8476 35.8113C32.8476 32.3679 33.5335 25.9403 34.9055 20.2013C35.8201 17.6761 36.5061 15.1509 37.1921 13.7736C37.6494 13.0849 37.878 12.6258 38.1067 12.3962C38.3354 12.6258 38.7927 13.0849 39.7073 13.7736C40.8506 15.1509 42.4512 16.9874 44.2805 19.5126C47.4817 24.3333 51.3689 30.5314 54.7988 36.2704C54.5701 36.7296 53.8841 37.6478 53.4268 38.7956ZM108.762 52.7987C103.96 57.6195 99.3872 60.1447 95.5 60.1447C91.6128 60.1447 87.0396 57.6195 82.2378 52.7987C78.3506 48.8962 74.4634 43.6164 69.8902 36.5C74.4634 29.6132 78.1219 24.5629 81.7805 20.8899C86.5823 16.0692 91.1555 13.7736 95.5 13.7736C99.8445 13.7736 104.189 16.0692 108.991 20.8899C112.649 24.5629 116.537 29.3836 120.881 36.5C116.537 43.6164 112.421 48.8962 108.762 52.7987ZM156.095 51.6509C155.409 54.4057 154.723 56.7013 153.808 58.3082C153.351 59.2264 152.893 59.6855 152.665 59.6855C152.665 59.6855 152.436 59.6855 152.436 59.9151C152.207 59.9151 151.979 59.6855 151.293 59.2264C150.607 58.7673 149.692 57.8491 148.549 56.7013C146.72 54.6352 144.662 51.6509 142.375 47.978C140.317 44.5346 138.488 41.0912 137.345 39.0252C136.659 37.8774 136.201 36.9591 135.973 36.2704C139.402 30.5314 143.061 24.3333 146.491 19.5126C148.32 16.9874 149.692 14.9214 151.064 13.7736C151.75 13.0849 152.207 12.6258 152.665 12.3962C153.122 12.6258 153.351 12.8553 153.579 13.7736C154.265 15.3805 155.18 17.6761 155.866 20.4308C157.238 26.3994 157.924 32.5975 157.924 36.0409C157.924 39.7138 157.466 46.3711 156.095 51.6509Z" fill="#0F64FA"/>
<path d="M23.4784 158.352H29.418H37.9974V149.319V144.472V135.438V130.591V121.117H29.418H23.4784V115.168H36.2376V107.016H23.4784V96L14.679 99.9659V107.237H1.69986V115.389H14.679V121.117H8.73939H7.85945H0.159963V129.71V130.15V134.998V144.031V148.878V157.912H8.73939H14.679V163.86H0V172.012H14.459V180.605H23.2584V172.453H40.6373V164.301H23.2584V158.352H23.4784ZM23.4784 129.49H29.858V135.879H23.4784V129.49ZM23.4784 143.811H29.858V150.2H23.4784V143.811ZM14.679 150.2H8.29942V143.811H14.679V150.2ZM14.679 135.659H8.29942V129.269H14.679V135.659Z" fill="#373C50"/>
<path d="M84.4143 167.165C80.0146 167.165 77.8148 163.64 77.8148 156.59V153.505V143.59H67.0355V153.505V156.59V162.538C67.0355 162.538 67.0355 170.47 62.1958 170.47C58.896 170.47 57.7961 165.843 57.7961 162.759V134.777H82.2145H83.0944V133.896V125.524V124.642H82.2145H42.6171H41.7372V125.524V133.896V134.777H42.6171H42.8371H47.4568V162.759C47.4568 171.792 52.7364 181.046 62.6358 181.046C68.1354 181.046 72.0952 178.402 74.735 174.656C77.8148 177.08 81.3345 177.961 84.8543 177.961H86.8342V167.165H84.4143Z" fill="#373C50"/>
<path d="M79.3547 116.27H80.2346V115.389V107.016V106.135H79.3547H45.0369H43.937V107.016V115.389V116.27H45.0369H79.3547Z" fill="#373C50"/>
<path d="M128.572 158.352H134.511H143.091V149.319V144.472V135.438V130.591V121.117H134.511H128.572V115.168H141.331V107.016H128.572V96L119.772 99.9659V107.237H106.793V115.389H119.772V121.117H113.833H112.953H105.253V129.71V130.15V134.998V144.031V148.878V157.912H113.833H119.772V163.86H105.253V172.012H119.772V180.605H128.572V172.453H145.951V164.301H128.572V158.352ZM128.572 129.49H134.951V135.879H128.572V129.49ZM128.572 143.811H134.951V150.2H128.572V143.811ZM119.552 150.2H113.173V143.811H119.552V150.2ZM119.552 135.659H113.173V129.269H119.552V135.659Z" fill="#373C50"/>
<path d="M189.288 167.165C184.888 167.165 182.688 163.64 182.688 156.59V153.505V143.59H171.909V153.505V156.59V162.538C171.909 162.538 171.909 170.47 167.069 170.47C163.769 170.47 162.67 165.843 162.67 162.759V134.777H187.088H187.968V133.896V125.524V124.642H187.088H147.491H146.611V125.524V133.896V134.777H147.491H147.711H152.33V162.759C152.33 171.792 157.61 181.046 167.509 181.046C173.009 181.046 176.969 178.402 179.608 174.656C182.688 177.08 186.208 177.961 189.728 177.961H191.708V167.165H189.288Z" fill="#373C50"/>
<path d="M184.228 116.27H185.108V115.389V107.016V106.135H184.228H149.91H149.03V107.016V115.389V116.27H149.91H184.228Z" fill="#373C50"/>
</svg>
