<svg width="558" height="86" viewBox="0 0 558 86" fill="none" xmlns="http://www.w3.org/2000/svg">
<path d="M168.508 21.0623C166.932 15.1497 164.844 10.5123 161.968 7.18883C159.091 3.59487 155.191 1.77856 151.015 1.77856C144.475 1.77856 139.786 6.6478 136.674 10.2418C132.497 15.111 128.321 22.0671 123.357 29.7574C108.228 8.15495 94.6748 3.55622 85.8101 3.55622C85.8101 3.55622 85.8101 3.55622 85.5343 3.55622C85.5343 3.55622 85.5343 3.55622 85.2585 3.55622C76.3939 3.55622 62.5649 8.19359 47.4359 29.7574C42.4717 21.7965 38.2954 14.8405 34.1192 10.2418C31.2825 6.6478 26.594 1.77856 20.0933 1.77856C15.917 1.77856 12.0166 3.59487 9.14047 7.18883C6.26437 10.2804 4.17625 15.1497 2.60031 21.0623C0.27579 30.5689 0 40.5779 0 42.6261C0 44.6742 0 54.7219 2.60031 64.2285C4.17625 70.1412 6.26437 74.7785 9.14047 78.102C12.253 81.6959 15.917 83.2417 20.3691 83.2417C20.8813 83.2417 21.6692 83.2417 21.6692 83.2417C26.3577 82.7393 30.8097 79.9183 36.0103 73.4646C39.9108 68.8272 43.8506 62.4122 47.7511 55.7266C52.7153 62.9146 57.4037 68.5567 62.0922 72.9622C69.6567 79.9183 77.7334 83.5122 85.5737 83.5122C93.6504 83.5122 101.491 79.9183 109.055 72.9622C113.744 68.5953 118.432 63.1851 123.396 55.7266C127.573 62.4122 131.473 68.8272 135.137 73.4646C140.101 79.6478 144.79 82.4688 149.478 83.2417C149.754 83.2417 150.503 83.2417 150.778 83.2417C154.955 83.2417 158.855 81.6959 162.007 78.102C164.883 74.7785 166.971 70.1412 168.547 64.2285C170.911 54.7219 171.147 44.7129 171.147 42.6261C171.108 40.5779 170.832 30.5689 168.508 21.0623ZM38.6106 46.3746C37.3499 48.8865 35.3011 52.6737 33.016 56.1904C30.4551 60.1708 28.17 63.4556 26.1213 65.697C25.0969 66.9723 24.0725 67.977 23.0482 68.4794C22.2996 68.9818 21.7874 69.2523 21.7874 69.2523C21.7874 69.2523 21.7874 69.2523 21.551 68.9818C21.3146 68.7113 21.0388 68.2089 20.2903 67.4747C19.4629 65.697 18.4385 63.1851 17.69 60.1708C16.4292 54.1422 15.6412 47.1089 15.6412 43.0898C15.6412 39.3026 16.3898 32.2693 17.9264 26.0088C18.9507 23.2264 19.7387 20.4826 20.4873 18.9755C20.9994 18.2026 21.2358 17.7002 21.5116 17.4683C21.748 17.7388 22.2602 18.2412 23.2846 18.9755C24.5453 20.4826 26.3577 22.4922 28.4064 25.2746C31.9917 30.5689 36.3255 37.3317 40.1472 43.6308C39.8714 44.0946 39.1228 45.0993 38.6106 46.3746ZM100.348 61.6779C94.99 66.9723 89.9076 69.7161 85.5343 69.7161C81.2005 69.7161 76.0787 66.9336 70.7205 61.6779C66.3866 57.3884 62.0528 51.6303 56.931 43.8241C62.0528 36.2883 66.1108 30.7621 70.2083 26.7431C75.5665 21.4487 80.6489 18.9368 85.5343 18.9368C90.4197 18.9368 95.2264 21.4487 100.585 26.7431C104.682 30.7621 109.016 36.0565 113.862 43.8241C109.016 51.6303 104.446 57.427 100.348 61.6779ZM153.142 60.4413C152.394 63.4556 151.606 65.9675 150.581 67.7452C150.069 68.7499 149.557 69.2523 149.321 69.2523C149.321 69.2523 149.084 69.2523 149.084 69.5228C148.848 69.5228 148.572 69.2523 147.823 68.7499C147.075 68.2476 146.051 67.2428 144.75 65.9675C142.702 63.6875 140.417 60.4413 137.856 56.4223C135.571 52.6351 133.522 48.8865 132.261 46.6065C131.512 45.3312 131 44.3264 130.725 43.5922C134.546 37.2931 138.644 30.5303 142.465 25.2359C144.514 22.4535 146.051 20.2121 147.587 18.9368C148.336 18.1639 148.848 17.6616 149.36 17.4297C149.872 17.7002 150.109 17.9321 150.384 18.9368C151.133 20.7145 152.157 23.2264 152.945 26.2407C154.482 32.7717 155.23 39.5731 155.23 43.3217C155.191 47.3794 154.679 54.6446 153.142 60.4413Z" fill="#0F64FA"/>
<path d="M212.791 67.3578C210.624 65.3483 209.52 62.1408 209.52 57.8126V28.172H224.768V14.0667H209.52V0L194.746 4.17363V14.1053V28.2107V57.8126C194.746 66.5849 197.543 73.6569 202.862 78.2943C207.157 82.0428 212.751 83.9364 219.291 83.9364C220.631 83.9364 221.97 83.8591 223.349 83.7046L225.043 83.5113V69.8697L223.034 69.9857C218.464 70.2948 214.997 69.406 212.791 67.3578Z" fill="#2E313A"/>
<path d="M264.481 13.1785C245.018 13.1785 229.141 29.4093 229.141 49.35C229.141 69.4839 244.939 85.2509 265.111 85.2509C281.304 85.2509 293.4 76.865 298.285 62.18L299.112 59.7454H283.708L283.195 60.8275C279.768 68.0154 273.543 71.8026 265.151 71.8026C256.207 71.8026 246.515 65.6967 244.348 53.9873H299.979V52.1324C300.058 40.6549 296.039 30.3754 288.751 23.1875C282.171 16.7338 273.582 13.1785 264.481 13.1785ZM245.333 40.6549C248.722 31.4188 257.271 26.6268 264.481 26.6268C272.834 26.6268 280.319 32.3076 283.392 40.6549H245.333Z" fill="#2E313A"/>
<path d="M400.838 67.3578C398.672 65.3483 397.568 62.1408 397.568 57.8126V28.172H412.816V14.0667H397.568V0L382.794 4.17363V14.1053V28.2107V57.8126C382.794 66.5849 385.591 73.6569 390.91 78.2943C395.204 82.0428 400.799 83.9751 407.339 83.9751C408.639 83.9751 410.018 83.8978 411.397 83.7432L413.091 83.55V69.9084L411.082 70.0243C406.512 70.2948 403.045 69.406 400.838 67.3578Z" fill="#2E313A"/>
<path d="M452.571 13.1785C433.108 13.1785 417.23 29.4093 417.23 49.35C417.23 69.4839 433.029 85.2509 453.201 85.2509C469.394 85.2509 481.489 76.865 486.375 62.18L487.163 59.7454H471.758L471.246 60.8275C467.818 68.0154 461.593 71.8026 453.201 71.8026C444.258 71.8026 434.565 65.6967 432.399 53.9873H488.029V52.1324C488.108 40.6549 484.09 30.3754 476.801 23.1875C470.221 16.7338 461.632 13.1785 452.571 13.1785ZM433.423 40.6549C436.811 31.4188 445.361 26.6268 452.571 26.6268C460.923 26.6268 468.409 32.3076 471.482 40.6549H433.423Z" fill="#2E313A"/>
<path d="M528.096 13.1785C511.588 13.1785 498.193 26.3563 498.193 42.5098V84.4781H512.77V42.5098C512.77 34.2012 519.665 27.477 528.096 27.477C536.528 27.477 543.422 34.2399 543.422 42.5098V84.4781H558V42.5098C558 26.3563 544.604 13.1785 528.096 13.1785Z" fill="#2E313A"/>
<path d="M340.049 13.1785C323.541 13.1785 310.145 26.3563 310.145 42.5098V84.4781H324.722V42.5098C324.722 34.2012 331.617 27.477 340.049 27.477C348.48 27.477 355.375 34.2399 355.375 42.5098V84.4781H369.952V42.5098C369.952 26.3563 356.517 13.1785 340.049 13.1785Z" fill="#2E313A"/>
</svg>
