<svg width="172" height="82" viewBox="0 0 172 82" fill="none" xmlns="http://www.w3.org/2000/svg">
<path d="M168.508 19.2837C166.932 13.3711 164.844 8.73372 161.968 5.41027C159.091 1.8163 155.191 0 151.015 0C144.475 0 139.786 4.86924 136.674 8.4632C132.497 13.3324 128.321 20.2885 123.357 27.9788C108.228 6.37638 94.6748 1.77766 85.8101 1.77766C85.8101 1.77766 85.8101 1.77766 85.5343 1.77766C85.5343 1.77766 85.5343 1.77766 85.2585 1.77766C76.3939 1.77766 62.5649 6.41503 47.4359 27.9788C42.4717 20.018 38.2954 13.0619 34.1192 8.4632C31.2825 4.86924 26.594 0 20.0933 0C15.917 0 12.0166 1.8163 9.14047 5.41027C6.26437 8.50185 4.17625 13.3711 2.60031 19.2837C0.27579 28.7903 0 38.7993 0 40.8475C0 42.8957 0 52.9433 2.60031 62.4499C4.17625 68.3626 6.26437 72.9999 9.14047 76.3234C12.253 79.9174 15.917 81.4632 20.3691 81.4632C20.8812 81.4632 21.6692 81.4632 21.6692 81.4632C26.3577 80.9608 30.8097 78.1397 36.0103 71.686C39.9108 67.0487 43.8506 60.6336 47.7511 53.9481C52.7153 61.136 57.4037 66.7781 62.0922 71.1836C69.6567 78.1397 77.7334 81.7337 85.5737 81.7337C93.6504 81.7337 101.491 78.1397 109.055 71.1836C113.744 66.8168 118.432 61.4065 123.396 53.9481C127.573 60.6336 131.473 67.0487 135.137 71.686C140.101 77.8692 144.79 80.6903 149.478 81.4632C149.754 81.4632 150.503 81.4632 150.778 81.4632C154.955 81.4632 158.855 79.9174 162.007 76.3234C164.883 72.9999 166.971 68.3626 168.547 62.4499C170.911 52.9433 171.147 42.9343 171.147 40.8475C171.108 38.7993 170.832 28.7903 168.508 19.2837ZM38.6106 44.5961C37.3499 47.108 35.3011 50.8951 33.016 54.4118C30.4551 58.3922 28.17 61.677 26.1213 63.9184C25.0969 65.1937 24.0725 66.1985 23.0482 66.7009C22.2996 67.2032 21.7874 67.4737 21.7874 67.4737C21.7874 67.4737 21.7874 67.4738 21.551 67.2032C21.3146 66.9327 21.0388 66.4303 20.2903 65.6961C19.4629 63.9184 18.4385 61.4065 17.69 58.3922C16.4292 52.3636 15.6412 45.3303 15.6412 41.3112C15.6412 37.5241 16.3898 30.4907 17.9264 24.2303C18.9507 21.4478 19.7387 18.7041 20.4873 17.1969C20.9994 16.424 21.2358 15.9216 21.5116 15.6898C21.748 15.9603 22.2602 16.4627 23.2846 17.1969C24.5453 18.7041 26.3577 20.7136 28.4064 23.496C31.9917 28.7903 36.3255 35.5532 40.1472 41.8523C39.8714 42.316 39.1228 43.3208 38.6106 44.5961ZM100.348 59.8994C94.99 65.1937 89.9076 67.9375 85.5343 67.9375C81.2005 67.9375 76.0787 65.1551 70.7205 59.8994C66.3866 55.6098 62.0528 49.8517 56.931 42.0455C62.0528 34.5098 66.1108 28.9836 70.2083 24.9645C75.5665 19.6702 80.6489 17.1583 85.5343 17.1583C90.4197 17.1583 95.2264 19.6702 100.585 24.9645C104.682 28.9836 109.016 34.2779 113.862 42.0455C109.016 49.8517 104.446 55.6484 100.348 59.8994ZM153.142 58.6627C152.394 61.677 151.606 64.1889 150.581 65.9666C150.069 66.9714 149.557 67.4737 149.321 67.4737C149.321 67.4737 149.084 67.4737 149.084 67.7443C148.848 67.7443 148.572 67.4738 147.823 66.9714C147.075 66.469 146.051 65.4642 144.75 64.1889C142.702 61.9089 140.417 58.6627 137.856 54.6437C135.571 50.8565 133.522 47.108 132.261 44.8279C131.512 43.5526 131 42.5479 130.725 41.8136C134.546 35.5145 138.644 28.7517 142.465 23.4574C144.514 20.6749 146.051 18.4335 147.587 17.1583C148.336 16.3854 148.848 15.883 149.36 15.6511C149.872 15.9216 150.109 16.1535 150.384 17.1583C151.133 18.9359 152.157 21.4478 152.945 24.4621C154.482 30.9931 155.23 37.7946 155.23 41.5431C155.191 45.6008 154.679 52.866 153.142 58.6627Z" fill="white"/>
</svg>
