<svg width="361" height="86" viewBox="0 0 361 86" fill="none" xmlns="http://www.w3.org/2000/svg">
<path d="M147.713 25.217C146.341 19.9371 144.512 15.805 141.997 12.8208C139.482 9.60692 136.052 8 132.393 8C126.677 8 122.561 12.3616 119.817 15.5755C116.159 19.9371 112.5 26.1352 108.155 33.022C94.8933 13.739 83.0031 9.60692 75.2287 9.60692C75.2287 9.60692 75.2287 9.60692 75 9.60692C75 9.60692 75 9.60692 74.7713 9.60692C66.997 9.60692 54.8781 13.739 41.6159 33.022C37.2713 25.9057 33.6128 19.7075 29.9543 15.5755C27.439 12.3616 23.3232 8 17.6067 8C13.9482 8 10.5183 9.60692 8.00305 12.8208C5.4878 15.5755 3.65854 19.9371 2.28659 25.217C0.228659 33.7107 0 42.6635 0 44.5C0 46.3365 0 55.2893 2.28659 63.783C3.65854 69.0629 5.4878 73.195 8.00305 76.1792C10.747 79.3931 13.9482 80.7704 17.8354 80.7704C18.2927 80.7704 18.9787 80.7704 18.9787 80.7704C23.0945 80.3113 26.9817 77.7862 31.5549 72.0472C34.9848 67.9151 38.4146 62.1761 41.8445 56.2075C46.189 62.6352 50.3049 67.6855 54.4207 71.5881C61.0518 77.7862 68.1402 81 75 81C82.0884 81 88.9482 77.7862 95.5793 71.5881C99.6951 67.6855 103.811 62.8648 108.155 56.2075C111.814 62.1761 115.244 67.9151 118.445 72.0472C122.79 77.5566 126.905 80.0818 131.021 80.7704C131.25 80.7704 131.936 80.7704 132.165 80.7704C135.823 80.7704 139.253 79.3931 141.997 76.1792C144.512 73.195 146.341 69.0629 147.713 63.783C149.771 55.2893 150 46.3365 150 44.5C150 42.6635 149.771 33.7107 147.713 25.217ZM32.9268 46.7956C31.7835 49.0912 29.9543 52.5346 27.8963 55.7484C25.6098 59.4214 23.5518 62.4057 21.7226 64.4717C20.8079 65.6195 19.8933 66.5377 18.9787 66.9969C18.2927 67.456 17.8354 67.6855 17.8354 67.6855C17.8354 67.6855 17.8354 67.6855 17.6067 67.456C17.378 67.2264 17.1494 66.7673 16.4634 66.0786C15.7774 64.4717 14.8628 62.1761 14.1768 59.4214C13.0335 53.9119 12.3476 47.4843 12.3476 43.8113C12.3476 40.3679 13.0335 33.9403 14.4055 28.2013C15.3201 25.6761 16.0061 23.1509 16.6921 21.7736C17.1494 21.0849 17.378 20.6258 17.6067 20.3962C17.8354 20.6258 18.2927 21.0849 19.2073 21.7736C20.3506 23.1509 21.9512 24.9874 23.7805 27.5126C26.9817 32.3333 30.8689 38.5314 34.2988 44.2704C34.0701 44.7296 33.3841 45.6478 32.9268 46.7956ZM88.2622 60.7987C83.4604 65.6195 78.8872 68.1447 75 68.1447C71.1128 68.1447 66.5396 65.6195 61.7378 60.7987C57.8506 56.8962 53.9634 51.6164 49.3902 44.5C53.9634 37.6132 57.6219 32.5629 61.2805 28.8899C66.0823 24.0692 70.6555 21.7736 75 21.7736C79.3445 21.7736 83.689 24.0692 88.4909 28.8899C92.1494 32.5629 96.0366 37.3836 100.381 44.5C96.0366 51.6164 91.9207 56.8962 88.2622 60.7987ZM135.595 59.6509C134.909 62.4057 134.223 64.7013 133.308 66.3082C132.851 67.2264 132.393 67.6855 132.165 67.6855C132.165 67.6855 131.936 67.6855 131.936 67.9151C131.707 67.9151 131.479 67.6855 130.793 67.2264C130.107 66.7673 129.192 65.8491 128.049 64.7013C126.22 62.6352 124.162 59.6509 121.875 55.978C119.817 52.5346 117.988 49.0912 116.845 47.0252C116.159 45.8774 115.701 44.9591 115.473 44.2704C118.902 38.5314 122.561 32.3333 125.991 27.5126C127.82 24.9874 129.192 22.9214 130.564 21.7736C131.25 21.0849 131.707 20.6258 132.165 20.3962C132.622 20.6258 132.851 20.8553 133.079 21.7736C133.765 23.3805 134.68 25.6761 135.366 28.4308C136.738 34.3994 137.424 40.5975 137.424 44.0409C137.424 47.7138 136.966 54.3711 135.595 59.6509Z" fill="white"/>
<path d="M195.318 62.3522H201.258H209.837V53.3188V48.4717V39.4383V34.5911V25.1171H201.258H195.318V19.1683H208.078V11.0163H195.318V0L186.519 3.96586V11.2366H173.54V19.3887H186.519V25.1171H180.579H179.699H172V33.7098V34.1505V38.9976V48.031V52.8782V61.9115H180.579H186.519V67.8603H172V76.0124H186.299V84.6051H195.098V76.453H212.477V68.301H195.098V62.3522H195.318ZM195.318 33.4895H201.698V39.879H195.318V33.4895ZM195.318 47.8107H201.698V54.2001H195.318V47.8107ZM186.519 54.2001H180.139V47.8107H186.519V54.2001ZM186.519 39.6586H180.139V33.2692H186.519V39.6586Z" fill="white"/>
<path d="M256.254 71.1652C251.855 71.1652 249.655 67.64 249.655 60.5896V57.505V47.5903H238.876V57.505V60.5896V66.5384C238.876 66.5384 238.876 74.4701 234.036 74.4701C230.736 74.4701 229.636 69.8433 229.636 66.7587V38.7773H254.055H254.935V37.896V29.5236V28.6423H254.055H214.457H213.577V29.5236V37.896V38.7773H214.457H214.677H219.297V66.7587C219.297 75.792 224.577 85.0457 234.476 85.0457C239.976 85.0457 243.935 82.4018 246.575 78.6563C249.655 81.0799 253.175 81.9612 256.694 81.9612H258.674V71.1652H256.254V71.1652Z" fill="white"/>
<path d="M251.195 20.27H252.075V19.3887V11.0163V10.135H251.195H216.877H215.777V11.0163V19.3887V20.27H216.877H251.195Z" fill="white"/>
<path d="M297.306 62.3522H303.246H311.825V53.3188V48.4717V39.4383V34.5911V25.1171H303.246H297.306V19.1683H310.065V11.0163H297.306V0L288.507 3.96586V11.2366H275.527V19.3887H288.507V25.1171H282.567H281.687H273.988V33.7098V34.1505V38.9976V48.031V52.8782V61.9115H282.567H288.507V67.8603L273.84 67.5678V75.7199L288.507 76.0124V84.6051H297.306V76.453H314.685V68.301H297.306V62.3522ZM297.306 33.4895H303.686V39.879H297.306V33.4895ZM297.306 47.8107H303.686V54.2001H297.306V47.8107ZM288.287 54.2001H281.907V47.8107H288.287V54.2001ZM288.287 39.6586H281.907V33.2692H288.287V39.6586Z" fill="white"/>
<path d="M358.022 71.1652C353.622 71.1652 351.422 67.64 351.422 60.5896V57.505V47.5903H340.643V57.505V60.5896V66.5384C340.643 66.5384 340.643 74.4701 335.803 74.4701C332.504 74.4701 331.404 69.8433 331.404 66.7587V38.7773H355.822H356.702V37.896V29.5236V28.6423H355.822H316.225H315.345V29.5236V37.896V38.7773H316.225H316.445H321.064V66.7587C321.064 75.792 326.344 85.0457 336.243 85.0457C341.743 85.0457 345.703 82.4018 348.343 78.6563C351.422 81.0799 354.942 81.9612 358.462 81.9612H360.442V71.1652H358.022V71.1652Z" fill="white"/>
<path d="M352.962 20.27H353.842V19.3887V11.0163V10.135H352.962H318.644H317.765V11.0163V19.3887V20.27H318.644H352.962Z" fill="white"/>
</svg>
