<svg width="302" height="186" viewBox="0 0 302 186" fill="none" xmlns="http://www.w3.org/2000/svg">
<path d="M233.675 19.2837C232.099 13.3711 230.011 8.73372 227.134 5.41027C224.258 1.8163 220.358 0 216.182 0C209.641 0 204.953 4.86924 201.841 8.4632C197.664 13.3324 193.488 20.2885 188.524 27.9788C173.395 6.37638 159.842 1.77766 150.977 1.77766C150.977 1.77766 150.977 1.77766 150.701 1.77766C150.701 1.77766 150.701 1.77766 150.425 1.77766C141.561 1.77766 127.732 6.41503 112.603 27.9788C107.639 20.018 103.462 13.0619 99.286 8.4632C96.4493 4.86924 91.7609 0 85.2601 0C81.0839 0 77.1834 1.8163 74.3073 5.41027C71.4312 8.50185 69.3431 13.3711 67.7672 19.2837C65.4427 28.7903 65.1669 38.7993 65.1669 40.8475C65.1669 42.8957 65.1669 52.9433 67.7672 62.4499C69.3431 68.3626 71.4312 72.9999 74.3073 76.3234C77.4198 79.9174 81.0839 81.4632 85.5359 81.4632C86.0481 81.4632 86.8361 81.4632 86.8361 81.4632C91.5245 80.9608 95.9766 78.1397 101.177 71.686C105.078 67.0487 109.017 60.6336 112.918 53.9481C117.882 61.136 122.571 66.7781 127.259 71.1836C134.824 78.1397 142.9 81.7337 150.741 81.7337C158.817 81.7337 166.658 78.1397 174.222 71.1836C178.911 66.8168 183.599 61.4065 188.563 53.9481C192.739 60.6336 196.64 67.0487 200.304 71.686C205.268 77.8692 209.957 80.6903 214.645 81.4632C214.921 81.4632 215.669 81.4632 215.945 81.4632C220.122 81.4632 224.022 79.9174 227.174 76.3234C230.05 72.9999 232.138 68.3626 233.714 62.4499C236.078 52.9433 236.314 42.9343 236.314 40.8475C236.275 38.7993 235.999 28.7903 233.675 19.2837ZM103.777 44.596C102.517 47.108 100.468 50.8951 98.1829 54.4118C95.622 58.3922 93.3369 61.677 91.2881 63.9184C90.2638 65.1937 89.2394 66.1985 88.215 66.7009C87.4665 67.2032 86.9543 67.4738 86.9543 67.4738C86.9543 67.4738 86.9543 67.4738 86.7179 67.2032C86.4815 66.9327 86.2057 66.4303 85.4571 65.6961C84.6298 63.9184 83.6054 61.4065 82.8568 58.3922C81.5961 52.3636 80.8081 45.3303 80.8081 41.3112C80.8081 37.5241 81.5567 30.4907 83.0932 24.2303C84.1176 21.4478 84.9056 18.7041 85.6541 17.1969C86.1663 16.424 86.4027 15.9216 86.6785 15.6898C86.9149 15.9603 87.4271 16.4627 88.4514 17.1969C89.7122 18.7041 91.5245 20.7136 93.5732 23.496C97.1585 28.7903 101.492 35.5532 105.314 41.8523C105.038 42.316 104.29 43.3208 103.777 44.596ZM165.515 59.8994C160.157 65.1937 155.074 67.9375 150.701 67.9375C146.367 67.9375 141.246 65.1551 135.887 59.8994C131.553 55.6098 127.22 49.8517 122.098 42.0455C127.22 34.5098 131.278 28.9836 135.375 24.9645C140.733 19.6702 145.816 17.1583 150.701 17.1583C155.587 17.1583 160.393 19.6702 165.751 24.9645C169.849 28.9836 174.183 34.2779 179.029 42.0455C174.183 49.8517 169.613 55.6485 165.515 59.8994ZM218.309 58.6627C217.561 61.677 216.773 64.1889 215.748 65.9666C215.236 66.9714 214.724 67.4738 214.488 67.4738C214.488 67.4738 214.251 67.4737 214.251 67.7443C214.015 67.7443 213.739 67.4738 212.99 66.9714C212.242 66.469 211.217 65.4642 209.917 64.1889C207.869 61.9089 205.583 58.6627 203.023 54.6437C200.737 50.8565 198.689 47.108 197.428 44.8279C196.679 43.5526 196.167 42.5479 195.891 41.8136C199.713 35.5145 203.81 28.7517 207.632 23.4574C209.681 20.6749 211.217 18.4335 212.754 17.1583C213.503 16.3854 214.015 15.883 214.527 15.6511C215.039 15.9216 215.275 16.1535 215.551 17.1583C216.3 18.9359 217.324 21.4478 218.112 24.4621C219.649 30.9931 220.397 37.7946 220.397 41.5431C220.358 45.6008 219.846 52.866 218.309 58.6627Z" fill="white"/>
<path d="M14.9813 171.144C13.1822 169.476 12.2663 166.813 12.2663 163.22V138.611H24.9252V126.9H12.2663V115.221L0 118.687V126.932V138.643V163.22C0 170.503 2.32243 176.374 6.73831 180.224C10.3037 183.337 14.9486 184.909 20.3785 184.909C21.4906 184.909 22.6028 184.844 23.7476 184.716L25.1542 184.556V173.23L23.4859 173.326C19.6916 173.583 16.813 172.845 14.9813 171.144Z" fill="white"/>
<path d="M57.8967 126.163C41.7379 126.163 28.5557 139.638 28.5557 156.194C28.5557 172.909 41.6725 186 58.4201 186C71.864 186 81.906 179.038 85.9621 166.846L86.649 164.824H73.8593L73.434 165.723C70.5883 171.69 65.4201 174.835 58.4528 174.835C51.0276 174.835 42.9809 169.765 41.1818 160.044H87.3686V158.504C87.434 148.975 84.0976 140.44 78.0462 134.472C72.5836 129.114 65.4528 126.163 57.8967 126.163ZM41.9996 148.975C44.8126 141.306 51.9107 137.328 57.8967 137.328C64.8313 137.328 71.0462 142.044 73.5976 148.975H41.9996Z" fill="white"/>
<path d="M171.106 171.144C169.307 169.476 168.391 166.813 168.391 163.22V138.611H181.05V126.9H168.391V115.221L156.125 118.687V126.932V138.643V163.22C156.125 170.503 158.447 176.374 162.863 180.224C166.428 183.337 171.073 184.941 176.503 184.941C177.582 184.941 178.727 184.877 179.872 184.748L181.279 184.588V173.262L179.61 173.358C175.816 173.583 172.938 172.845 171.106 171.144Z" fill="white"/>
<path d="M214.056 126.163C197.897 126.163 184.715 139.638 184.715 156.194C184.715 172.909 197.832 186 214.579 186C228.023 186 238.065 179.038 242.121 166.846L242.775 164.824H229.986L229.56 165.723C226.715 171.69 221.546 174.835 214.579 174.835C207.154 174.835 199.107 169.765 197.308 160.044H243.495V158.504C243.56 148.975 240.224 140.44 234.173 134.472C228.71 129.114 221.579 126.163 214.056 126.163ZM198.159 148.975C200.972 141.306 208.07 137.328 214.056 137.328C220.99 137.328 227.205 142.044 229.757 148.975H198.159Z" fill="white"/>
<path d="M276.76 126.163C263.055 126.163 251.933 137.103 251.933 150.515V185.358H264.036V150.515C264.036 143.616 269.76 138.034 276.76 138.034C283.76 138.034 289.484 143.649 289.484 150.515V185.358H301.587V150.515C301.587 137.103 290.466 126.163 276.76 126.163Z" fill="white"/>
<path d="M120.636 126.163C106.93 126.163 95.8087 137.103 95.8087 150.515V185.358H107.911V150.515C107.911 143.616 113.636 138.034 120.636 138.034C127.636 138.034 133.36 143.649 133.36 150.515V185.358H145.463V150.515C145.463 137.103 134.309 126.163 120.636 126.163Z" fill="white"/>
</svg>
