<svg width="618" height="70" viewBox="0 0 618 70" fill="none" xmlns="http://www.w3.org/2000/svg">
<path d="M99.5489 13.2581C98.621 9.76639 97.3757 7.03167 95.691 5.05388C93.9818 2.92958 91.6865 1.85522 89.2204 1.85522C85.3625 1.85522 82.5789 4.73645 80.7476 6.86075C78.2815 9.74198 75.8154 13.8441 72.8853 18.3857C63.9486 5.61547 55.9398 2.90516 50.7145 2.90516C50.7145 2.90516 50.7145 2.90516 50.5436 2.90516C50.5436 2.90516 50.5436 2.90516 50.3727 2.90516C45.1474 2.90516 36.9676 5.63989 28.0309 18.3857C25.1009 13.6731 22.6347 9.57106 20.1686 6.86075C18.4838 4.73645 15.7003 1.85522 11.8668 1.85522C9.40062 1.85522 7.1054 2.92958 5.3962 5.05388C3.687 6.88517 2.46614 9.76639 1.53828 13.2581C0.17092 18.874 0 24.783 0 25.9794C0 27.2003 0 33.1336 1.53828 38.7496C2.46614 42.2413 3.71141 44.976 5.3962 46.9538C7.22749 49.0781 9.40062 49.9815 12.0377 49.9815C12.3307 49.9815 12.7946 49.9815 12.7946 49.9815C15.5537 49.6885 18.1908 48.0281 21.2674 44.1946C23.5626 41.4599 25.9066 37.6752 28.2019 33.7197C31.1319 37.9682 33.9155 41.289 36.6746 43.9016C41.143 48.0037 45.9043 50.128 50.5436 50.128C55.3049 50.128 59.9442 48.0037 64.4125 43.9016C67.1717 41.3134 69.9552 38.1148 72.8853 33.7197C75.3514 37.6752 77.6467 41.4599 79.8198 44.1946C82.7498 47.8572 85.5334 49.5176 88.2926 49.9815C88.4635 49.9815 88.903 49.9815 89.0495 49.9815C91.5156 49.9815 93.8108 49.0781 95.691 46.9538C97.4002 45.0004 98.621 42.2413 99.5489 38.7496C100.941 33.1336 101.087 27.2247 101.087 25.9794C101.087 24.783 100.916 18.874 99.5489 13.2581ZM22.8057 28.2014C22.0487 29.6908 20.8523 31.9128 19.5093 33.9882C17.9955 36.3323 16.6525 38.2857 15.4317 39.6042C14.8212 40.3611 14.2108 40.9471 13.6248 41.2402C13.1853 41.5332 12.8679 41.7041 12.8679 41.7041C12.8679 41.7041 12.8679 41.7041 12.7214 41.5332C12.5749 41.3622 12.4283 41.0692 11.9644 40.6541C11.4761 39.6042 10.8656 38.1148 10.4261 36.3323C9.66921 32.7674 9.20528 28.6165 9.20528 26.248C9.20528 24.0016 9.64479 19.8507 10.5482 16.1637C11.1587 14.5277 11.6226 12.8918 12.0621 12.0128C12.4039 11.5489 12.5504 11.2558 12.6969 11.1338C12.8434 11.3047 13.1364 11.5977 13.7469 12.0128C14.5038 12.8918 15.5537 14.0882 16.7746 15.7242C18.8989 18.8496 21.4627 22.854 23.7091 26.5654C23.5626 26.8584 23.1231 27.4444 22.8057 28.2014ZM59.2849 37.2357C56.1107 40.3611 53.1074 41.9727 50.5436 41.9727C47.9798 41.9727 44.952 40.3367 41.8022 37.2357C39.2384 34.6963 36.6746 31.3024 33.6469 26.6875C36.6746 22.2436 39.0675 18.9717 41.4848 16.6032C44.659 13.4778 47.6624 11.9884 50.5436 11.9884C53.4248 11.9884 56.2572 13.4778 59.4314 16.6032C61.8487 18.9717 64.4125 22.0971 67.2694 26.6875C64.3881 31.3024 61.7022 34.7208 59.2849 37.2357ZM90.4657 36.5032C90.0262 38.2857 89.5622 39.7751 88.9518 40.8251C88.6588 41.4111 88.3414 41.7041 88.1949 41.7041C88.1949 41.7041 88.0484 41.7041 88.0484 41.875C87.9019 41.875 87.7554 41.7041 87.2914 41.4111C86.8519 41.1181 86.2415 40.5321 85.4846 39.7751C84.2637 38.4322 82.9208 36.5032 81.4069 34.1347C80.064 31.8884 78.8431 29.6908 78.1106 28.3479C77.6711 27.5909 77.3537 27.0049 77.2072 26.5654C79.4535 22.854 81.8952 18.8496 84.1416 15.7242C85.3625 14.0882 86.2659 12.7453 87.1694 12.0128C87.6089 11.5489 87.9263 11.2558 88.2193 11.1338C88.5123 11.3047 88.6588 11.4268 88.8297 12.0128C89.2692 13.0627 89.8797 14.5522 90.3436 16.3346C91.247 20.1925 91.6865 24.2214 91.6865 26.4189C91.6865 28.7874 91.3691 33.0848 90.4657 36.5032Z" fill="white"/>
<path d="M125.7 40.6054C124.43 39.409 123.771 37.5289 123.771 34.9651V17.4579H132.781V9.10726H123.771V0.80542L115.054 3.27156V9.13168V17.4579V34.9406C115.054 40.1171 116.714 44.2924 119.84 47.0516C122.379 49.2735 125.675 50.3723 129.533 50.3723C130.315 50.3723 131.12 50.3235 131.926 50.2258L132.927 50.1037V42.046L131.731 42.1193C129.045 42.3391 127.018 41.8019 125.7 40.6054Z" fill="white"/>
<path d="M156.245 8.59424C144.745 8.59424 135.369 18.1902 135.369 29.9593C135.369 41.8505 144.696 51.1778 156.612 51.1778C166.183 51.1778 173.313 46.2211 176.219 37.553L176.707 36.1124H167.599L167.306 36.7473C165.28 40.9959 161.593 43.2422 156.636 43.2422C151.362 43.2422 145.624 39.6285 144.354 32.7184H177.22V31.6196C177.269 24.8317 174.9 18.7762 170.578 14.5276C166.696 10.6941 161.617 8.59424 156.245 8.59424ZM144.94 24.8317C146.942 19.3866 151.997 16.5542 156.245 16.5542C161.178 16.5542 165.597 19.8994 167.428 24.8317H144.94Z" fill="white"/>
<path d="M236.798 40.6054C235.528 39.409 234.869 37.5289 234.869 34.9651V17.4579H243.879V9.10726H234.869V0.80542L226.152 3.27156V9.13168V17.4579V34.9406C226.152 40.1171 227.812 44.2924 230.938 47.0516C233.477 49.2735 236.774 50.3967 240.631 50.3967C241.388 50.3967 242.219 50.3479 243.024 50.2502L244.025 50.1281V42.0705L242.829 42.1437C240.143 42.3391 238.092 41.8019 236.798 40.6054Z" fill="white"/>
<path d="M267.343 8.59424C255.843 8.59424 246.467 18.1902 246.467 29.9593C246.467 41.8505 255.794 51.1778 267.71 51.1778C277.281 51.1778 284.411 46.2211 287.317 37.553L287.781 36.1124H278.673L278.38 36.7473C276.353 40.9959 272.666 43.2422 267.71 43.2422C262.436 43.2422 256.698 39.6285 255.428 32.7184H288.293V31.6196C288.342 24.8317 285.974 18.7762 281.652 14.5276C277.77 10.6941 272.691 8.59424 267.343 8.59424ZM256.038 24.8317C258.041 19.3866 263.095 16.5542 267.343 16.5542C272.276 16.5542 276.695 19.8994 278.527 24.8317H256.038Z" fill="white"/>
<path d="M311.954 8.59424C302.211 8.59424 294.276 16.3833 294.276 25.9304V50.7139H302.895V25.906C302.895 20.9982 306.973 17.0182 311.954 17.0182C316.935 17.0182 321.013 21.0226 321.013 25.906V50.6895H329.632V25.906C329.632 16.3833 321.721 8.59424 311.954 8.59424Z" fill="white"/>
<path d="M200.88 8.59424C191.138 8.59424 183.227 16.3833 183.227 25.9304V50.7139H191.846V25.906C191.846 20.9982 195.923 17.0182 200.905 17.0182C205.886 17.0182 209.963 21.0226 209.963 25.906V50.6895H218.583V25.906C218.534 16.3833 210.598 8.59424 200.88 8.59424Z" fill="white"/>
<g opacity="0.5">
<path d="M467.345 8.9856C455.869 8.9856 446.59 18.5083 446.59 30.4727C446.59 42.4371 455.869 51.7157 467.833 51.7157C477.356 51.7157 484.437 46.8322 487.367 38.042L487.855 36.577H478.821L478.577 37.3095C476.623 41.4605 472.961 43.9022 467.833 43.9022C462.461 43.9022 456.845 40.2396 455.624 33.4028H488.343V31.9378C488.343 25.1009 485.902 18.9966 481.751 14.8457C477.844 11.1831 472.716 8.9856 467.345 8.9856ZM456.113 25.3451C458.066 19.9733 463.194 17.0433 467.345 17.0433C472.228 17.0433 476.623 20.4617 478.577 25.3451H456.113Z" fill="white"/>
<path d="M372.118 8.74097C360.398 8.74097 351.363 18.2637 351.363 30.4723C351.363 42.4367 360.398 51.9594 371.874 51.9594C376.513 51.9594 380.664 50.2502 384.082 47.076V50.9827H392.628V30.4723C392.628 18.2637 383.594 8.74097 372.118 8.74097ZM372.118 43.4134C365.525 43.4134 360.153 37.5532 360.153 30.2281C360.153 22.9029 365.525 17.0428 372.118 17.0428C378.466 17.0428 384.082 23.1471 384.082 30.2281C383.838 37.5532 378.711 43.4134 372.118 43.4134Z" fill="white"/>
<path d="M419.731 8.74097C408.011 8.74097 398.977 18.2637 398.977 30.4723C398.977 42.4367 408.011 51.9594 419.487 51.9594C424.126 51.9594 428.277 50.2502 431.451 47.3201V47.8085C431.451 54.4011 428.277 61.2379 418.999 61.2379C417.289 61.2379 410.941 60.7496 408.499 55.3778L408.255 54.6453H399.221L399.709 56.1103C401.907 64.4122 409.476 69.7839 419.243 69.7839C431.94 69.7839 440.486 60.9937 440.486 47.8085V30.4723C440.242 18.2637 431.207 8.74097 419.731 8.74097ZM419.731 43.4134C413.139 43.4134 407.767 37.5532 407.767 30.2281C407.767 22.9029 413.139 17.0428 419.731 17.0428C426.08 17.0428 431.696 23.1471 431.696 30.2281C431.696 37.5532 426.324 43.4134 419.731 43.4134Z" fill="white"/>
<path d="M512.029 8.74097C501.773 8.74097 494.692 15.822 494.692 26.0772V50.7385H503.483V25.833C503.483 20.4612 506.901 17.0428 512.029 17.0428C517.156 17.0428 520.575 20.4612 520.575 25.833V50.7385H529.365V26.0772C529.365 15.822 522.284 8.74097 512.029 8.74097Z" fill="white"/>
<path d="M557.2 17.287C561.595 17.287 565.258 19.4845 567.211 23.3913L567.455 24.1238H576.734L576.245 22.4146C573.559 14.1127 566.234 8.74097 557.2 8.74097C545.724 8.74097 536.445 18.5078 536.445 30.4723C536.445 42.1925 545.724 51.9594 557.2 51.9594C566.234 51.9594 573.559 46.5876 576.49 38.2858L576.978 36.5766H567.699L567.455 37.3091C565.502 41.2158 561.839 43.4134 557.444 43.4134C550.851 43.4134 545.724 37.5532 545.724 30.4723C545.236 23.1471 550.607 17.287 557.2 17.287Z" fill="white"/>
<path d="M609.21 9.72046V34.3818C609.21 39.7536 605.791 43.172 600.664 43.172C595.536 43.172 592.118 39.7536 592.118 34.3818V9.72046H583.328V34.3818C583.328 44.3929 590.653 51.718 600.664 51.718C604.082 51.718 606.768 50.9855 609.21 49.2763V52.4505C609.21 57.8223 605.791 61.2407 600.664 61.2407C596.513 61.2407 593.583 59.2874 592.362 55.3806L592.118 54.6481H583.328L583.572 56.1131C585.037 64.415 591.874 69.7867 600.664 69.7867C610.919 69.7867 618 62.7058 618 52.4505V9.72046H609.21Z" fill="white"/>
<path d="M342.085 50.9832C344.917 50.9832 347.212 48.6875 347.212 45.8556C347.212 43.0237 344.917 40.728 342.085 40.728C339.253 40.728 336.957 43.0237 336.957 45.8556C336.957 48.6875 339.253 50.9832 342.085 50.9832Z" fill="white"/>
</g>
</svg>
