<svg width="618" height="69" viewBox="0 0 618 69" fill="none" xmlns="http://www.w3.org/2000/svg">
<path d="M99.5489 12.4524C98.621 8.96073 97.3758 6.226 95.691 4.24821C93.9818 2.12392 91.6866 1.04956 89.2204 1.04956C85.3625 1.04956 82.5789 3.93079 80.7476 6.05508C78.2815 8.93631 75.8154 13.0384 72.8853 17.58C63.9486 4.80981 55.9398 2.0995 50.7145 2.0995C50.7145 2.0995 50.7145 2.0995 50.5436 2.0995C50.5436 2.0995 50.5436 2.0995 50.3727 2.0995C45.1474 2.0995 36.9676 4.83423 28.0309 17.58C25.1009 12.8675 22.6347 8.76539 20.1686 6.05508C18.4838 3.93079 15.7003 1.04956 11.8668 1.04956C9.40062 1.04956 7.1054 2.12392 5.3962 4.24821C3.687 6.0795 2.46614 8.96073 1.53828 12.4524C0.17092 18.0683 0 23.9773 0 25.1737C0 26.3946 0 32.328 1.53828 37.9439C2.46614 41.4356 3.71141 44.1703 5.3962 46.1481C7.22749 48.2724 9.40062 49.1758 12.0377 49.1758C12.3307 49.1758 12.7946 49.1758 12.7946 49.1758C15.5537 48.8828 18.1908 47.2225 21.2674 43.389C23.5626 40.6542 25.9066 36.8696 28.2019 32.914C31.1319 37.1626 33.9155 40.4833 36.6746 43.096C41.143 47.198 45.9043 49.3223 50.5436 49.3223C55.3049 49.3223 59.9442 47.198 64.4125 43.096C67.1717 40.5077 69.9553 37.3091 72.8853 32.914C75.3515 36.8696 77.6467 40.6542 79.8198 43.389C82.7499 47.0515 85.5334 48.7119 88.2926 49.1758C88.4635 49.1758 88.903 49.1758 89.0495 49.1758C91.5156 49.1758 93.8108 48.2724 95.691 46.1481C97.4002 44.1947 98.621 41.4356 99.5489 37.9439C100.941 32.328 101.087 26.419 101.087 25.1737C101.087 23.9773 100.916 18.0683 99.5489 12.4524ZM22.8057 27.3957C22.0487 28.8852 20.8523 31.1071 19.5093 33.1826C17.9955 35.5266 16.6525 37.48 15.4317 38.7985C14.8212 39.5555 14.2108 40.1415 13.6248 40.4345C13.1853 40.7275 12.8679 40.8984 12.8679 40.8984C12.8679 40.8984 12.8679 40.8984 12.7214 40.7275C12.5749 40.5566 12.4284 40.2636 11.9644 39.8485C11.4761 38.7985 10.8656 37.3091 10.4261 35.5266C9.66921 31.9617 9.20528 27.8108 9.20528 25.4423C9.20528 23.196 9.64479 19.045 10.5482 15.358C11.1587 13.7221 11.6226 12.0861 12.0621 11.2071C12.4039 10.7432 12.5504 10.4502 12.6969 10.3281C12.8434 10.499 13.1364 10.792 13.7469 11.2071C14.5038 12.0861 15.5538 13.2826 16.7746 14.9185C18.8989 18.0439 21.4627 22.0483 23.7091 25.7598C23.5626 26.0528 23.1231 26.6388 22.8057 27.3957ZM59.2849 36.4301C56.1107 39.5555 53.1074 41.167 50.5436 41.167C47.9798 41.167 44.952 39.5311 41.8022 36.4301C39.2384 33.8907 36.6746 30.4967 33.6469 25.8818C36.6746 21.4379 39.0675 18.166 41.4848 15.7975C44.659 12.6721 47.6624 11.1827 50.5436 11.1827C53.4248 11.1827 56.2572 12.6721 59.4314 15.7975C61.8487 18.166 64.4125 21.2914 67.2694 25.8818C64.3881 30.4967 61.7022 33.9151 59.2849 36.4301ZM90.4657 35.6976C90.0262 37.48 89.5623 38.9695 88.9518 40.0194C88.6588 40.6054 88.3414 40.8984 88.1949 40.8984C88.1949 40.8984 88.0484 40.8984 88.0484 41.0693C87.9019 41.0693 87.7554 40.8984 87.2915 40.6054C86.8519 40.3124 86.2415 39.7264 85.4846 38.9695C84.2637 37.6265 82.9208 35.6976 81.4069 33.3291C80.064 31.0827 78.8431 28.8852 78.1106 27.5422C77.6711 26.7853 77.3537 26.1993 77.2072 25.7598C79.4535 22.0483 81.8953 18.0439 84.1416 14.9185C85.3625 13.2826 86.2659 11.9396 87.1694 11.2071C87.6089 10.7432 87.9263 10.4502 88.2193 10.3281C88.5123 10.499 88.6588 10.6211 88.8297 11.2071C89.2693 12.2571 89.8797 13.7465 90.3436 15.529C91.247 19.3869 91.6865 23.4157 91.6865 25.6133C91.6865 27.9817 91.3691 32.2791 90.4657 35.6976Z" fill="#1161F9"/>
<path d="M125.7 39.8C124.43 38.6036 123.771 36.7235 123.771 34.1596V16.6525H132.781V8.30184H123.771V0L115.054 2.46614V8.32626V16.6525V34.1352C115.054 39.3117 116.714 43.487 119.84 46.2462C122.379 48.4681 125.675 49.5669 129.533 49.5669C130.315 49.5669 131.12 49.5181 131.926 49.4204L132.927 49.2983V41.2406L131.731 41.3139C129.045 41.5336 127.018 40.9965 125.7 39.8Z" fill="#1E1E1E"/>
<path d="M156.245 7.78882C144.745 7.78882 135.369 17.3848 135.369 29.1539C135.369 41.045 144.696 50.3724 156.612 50.3724C166.183 50.3724 173.313 45.4157 176.219 36.7476L176.707 35.307H167.599L167.306 35.9418C165.28 40.1904 161.593 42.4368 156.636 42.4368C151.362 42.4368 145.624 38.8231 144.354 31.913H177.22V30.8142C177.269 24.0262 174.9 17.9708 170.578 13.7222C166.696 9.8887 161.617 7.78882 156.245 7.78882ZM144.94 24.0262C146.942 18.5812 151.997 15.7488 156.245 15.7488C161.178 15.7488 165.597 19.094 167.428 24.0262H144.94Z" fill="#1E1E1E"/>
<path d="M236.798 39.8C235.529 38.6036 234.869 36.7235 234.869 34.1596V16.6525H243.879V8.30184H234.869V0L226.152 2.46614V8.32626V16.6525V34.1352C226.152 39.3117 227.813 43.487 230.938 46.2462C233.477 48.4681 236.774 49.5913 240.632 49.5913C241.389 49.5913 242.219 49.5425 243.025 49.4448L244.026 49.3227V41.265L242.829 41.3383C240.143 41.5336 238.092 40.9965 236.798 39.8Z" fill="#1E1E1E"/>
<path d="M267.343 7.78882C255.843 7.78882 246.467 17.3848 246.467 29.1539C246.467 41.045 255.794 50.3724 267.71 50.3724C277.281 50.3724 284.411 45.4157 287.317 36.7476L287.781 35.307H278.673L278.38 35.9418C276.353 40.1904 272.666 42.4368 267.71 42.4368C262.436 42.4368 256.698 38.8231 255.428 31.913H288.293V30.8142C288.342 24.0262 285.974 17.9708 281.652 13.7222C277.77 9.8887 272.691 7.78882 267.343 7.78882ZM256.038 24.0262C258.041 18.5812 263.095 15.7488 267.343 15.7488C272.276 15.7488 276.695 19.094 278.527 24.0262H256.038Z" fill="#1E1E1E"/>
<path d="M311.954 7.78882C302.211 7.78882 294.276 15.5779 294.276 25.125V49.9085H302.895V25.1006C302.895 20.1928 306.973 16.2127 311.954 16.2127C316.935 16.2127 321.013 20.2172 321.013 25.1006V49.8841H329.632V25.1006C329.632 15.5779 321.721 7.78882 311.954 7.78882Z" fill="#1E1E1E"/>
<path d="M200.88 7.78882C191.138 7.78882 183.227 15.5779 183.227 25.125V49.9085H191.846V25.1006C191.846 20.1928 195.924 16.2127 200.905 16.2127C205.886 16.2127 209.964 20.2172 209.964 25.1006V49.8841H218.583V25.1006C218.534 15.5779 210.598 7.78882 200.88 7.78882Z" fill="#1E1E1E"/>
<g opacity="0.5">
<path d="M467.345 8.17993C455.869 8.17993 446.59 17.7026 446.59 29.6671C446.59 41.6315 455.869 50.91 467.833 50.91C477.356 50.91 484.437 46.0266 487.367 37.2364L487.855 35.7714H478.821L478.577 36.5039C476.623 40.6548 472.961 43.0965 467.833 43.0965C462.461 43.0965 456.845 39.4339 455.624 32.5971H488.343V31.1321C488.343 24.2953 485.902 18.191 481.751 14.0401C477.844 10.3775 472.716 8.17993 467.345 8.17993ZM456.113 24.5395C458.066 19.1677 463.194 16.2376 467.345 16.2376C472.228 16.2376 476.623 19.656 478.577 24.5395H456.113Z" fill="#1E1E1E"/>
<path d="M372.118 7.93555C360.397 7.93555 351.363 17.4582 351.363 29.6668C351.363 41.6313 360.397 51.154 371.873 51.154C376.513 51.154 380.664 49.4448 384.082 46.2705V50.1773H392.628V29.6668C392.628 17.4582 383.594 7.93555 372.118 7.93555ZM372.118 42.608C365.525 42.608 360.153 36.7478 360.153 29.4227C360.153 22.0975 365.525 16.2374 372.118 16.2374C378.466 16.2374 384.082 22.3417 384.082 29.4227C383.838 36.7478 378.71 42.608 372.118 42.608Z" fill="#1E1E1E"/>
<path d="M419.731 7.93555C408.011 7.93555 398.977 17.4583 398.977 29.6668C398.977 41.6313 408.011 51.154 419.487 51.154C424.126 51.154 428.277 49.4448 431.451 46.5147V47.0031C431.451 53.5957 428.277 60.4325 418.999 60.4325C417.289 60.4325 410.941 59.9442 408.499 54.5724L408.255 53.8399H399.221L399.709 55.3049C401.907 63.6067 409.476 68.9785 419.243 68.9785C431.94 68.9785 440.486 60.1883 440.486 47.0031V29.6668C440.242 17.4583 431.207 7.93555 419.731 7.93555ZM419.731 42.608C413.139 42.608 407.767 36.7478 407.767 29.4227C407.767 22.0975 413.139 16.2374 419.731 16.2374C426.08 16.2374 431.696 22.3417 431.696 29.4227C431.696 36.7478 426.324 42.608 419.731 42.608Z" fill="#1E1E1E"/>
<path d="M512.029 7.93555C501.773 7.93555 494.692 15.0165 494.692 25.2718V49.9331H503.483V25.0276C503.483 19.6558 506.901 16.2374 512.029 16.2374C517.156 16.2374 520.575 19.6558 520.575 25.0276V49.9331H529.365V25.2718C529.365 15.0165 522.284 7.93555 512.029 7.93555Z" fill="#1E1E1E"/>
<path d="M557.2 16.4816C561.595 16.4816 565.258 18.6791 567.211 22.5859L567.455 23.3184H576.734L576.246 21.6092C573.56 13.3073 566.235 7.93555 557.2 7.93555C545.724 7.93555 536.446 17.7024 536.446 29.6668C536.446 41.3871 545.724 51.154 557.2 51.154C566.235 51.154 573.56 45.7822 576.49 37.4803L576.978 35.7711H567.7L567.455 36.5037C565.502 40.4104 561.839 42.608 557.444 42.608C550.852 42.608 545.724 36.7478 545.724 29.6668C545.236 22.3417 550.608 16.4816 557.2 16.4816Z" fill="#1E1E1E"/>
<path d="M609.21 8.91504V33.5764C609.21 38.9482 605.791 42.3666 600.664 42.3666C595.536 42.3666 592.118 38.9482 592.118 33.5764V8.91504H583.328V33.5764C583.328 43.5875 590.653 50.9126 600.664 50.9126C604.082 50.9126 606.768 50.1801 609.21 48.4709V51.6451C609.21 57.0169 605.791 60.4353 600.664 60.4353C596.513 60.4353 593.583 58.4819 592.362 54.5752L592.118 53.8427H583.328L583.572 55.3077C585.037 63.6095 591.874 68.9813 600.664 68.9813C610.919 68.9813 618 61.9003 618 51.6451V8.91504H609.21Z" fill="#1E1E1E"/>
<path d="M342.085 50.1776C344.917 50.1776 347.212 47.8819 347.212 45.05C347.212 42.2181 344.917 39.9224 342.085 39.9224C339.253 39.9224 336.957 42.2181 336.957 45.05C336.957 47.8819 339.253 50.1776 342.085 50.1776Z" fill="#1E1E1E"/>
</g>
</svg>
