<svg width="618" height="96" viewBox="0 0 618 96" fill="none" xmlns="http://www.w3.org/2000/svg">
<path d="M122.3 25.3C121.2 21 119.6 17.6 117.6 15.2C115.5 12.6 112.7 11.3 109.7 11.3C105 11.3 101.6 14.8 99.3 17.4C96.3 20.9 93.2 26 89.6 31.6C78.6 15.9 68.8 12.6 62.3 12.6C62.3 12.6 62.3 12.6 62.1 12.6C62.1 12.6 62.1 12.6 61.9 12.6C55.5 12.6 45.4 16 34.4 31.6C30.8 25.8 27.8 20.8 24.7 17.4C22.6 14.8 19.2 11.3 14.5 11.3C11.5 11.3 8.6 12.6 6.6 15.2C4.5 17.5 3 21 1.9 25.3C0.2 32.2 0 39.5001 0 40.9001C0 42.3001 0 49.7 1.9 56.6C3 60.9 4.6 64.3 6.6 66.7C8.9 69.3 11.5 70.4001 14.7 70.4001C15.1 70.4001 15.6 70.4001 15.6 70.4001C19 70.0001 22.2 68.0001 26 63.3001C28.8 59.9001 31.7 55.3001 34.5 50.4001C38.1 55.6001 41.5 59.7001 44.9 62.9001C50.4 67.9001 56.3 70.6 61.9 70.6C67.8 70.6 73.5 68.0001 78.9 62.9001C82.3 59.7001 85.7 55.8001 89.3 50.4001C92.3 55.3001 95.2 59.9001 97.8 63.3001C101.4 67.8001 104.8 69.8001 108.2 70.4001C108.4 70.4001 108.9 70.4001 109.1 70.4001C112.1 70.4001 115 69.3 117.3 66.7C119.4 64.3 120.9 60.9 122 56.6C123.7 49.7 123.9 42.4001 123.9 40.9001C124.2 39.5001 124 32.2 122.3 25.3ZM28 43.7001C27.1 45.5001 25.6 48.3 23.9 50.8C22 53.7 20.4 56.1001 18.9 57.7001C18.2 58.6001 17.4 59.4001 16.7 59.7001C16.2 60.1001 15.8 60.3 15.8 60.3C15.8 60.3 15.8 60.3 15.6 60.1C15.4 59.9 15.2 59.5 14.7 59C14.1 57.7 13.4 55.9001 12.8 53.7001C11.9 49.3001 11.3 44.2 11.3 41.3C11.3 38.6 11.8 33.4 13 28.9C13.7 26.9 14.3 24.9 14.9 23.8C15.3 23.2 15.4 22.9 15.6 22.7C15.8 22.9 16.1 23.3 16.9 23.8C17.8 24.9 19.1 26.4 20.6 28.4C23.2 32.2 26.3 37.2001 29.1 41.7001C28.9 42.0001 28.4 42.7001 28 43.7001ZM72.8 54.8C68.9 58.6 65.2 60.6 62 60.6C58.9 60.6 55.1 58.6 51.2 54.8C48.1 51.7 44.9 47.5 41.2 41.8C45 36.3 48 32.3 51 29.4C54.9 25.6 58.6 23.7 62.1 23.7C65.6 23.7 69.1 25.5 73 29.4C76 32.3 79.1 36.2 82.6 41.8C79.1 47.5 75.8 51.7 72.8 54.8ZM111.2 53.9001C110.7 56.1001 110.1 57.9001 109.3 59.2001C108.9 59.9001 108.6 60.3 108.4 60.3C108.4 60.3 108.2 60.3 108.2 60.5C108 60.5 107.8 60.3001 107.3 59.9001C106.8 59.5001 106 58.8001 105.1 57.9001C103.6 56.2001 102 53.9 100.1 51C98.4 48.3 97 45.5001 96 43.9001C95.5 43.0001 95.1 42.2001 94.9 41.7001C97.7 37.1001 100.6 32.2 103.4 28.4C104.9 26.4 106 24.8 107.1 23.8C107.6 23.2 108 22.9 108.4 22.7C108.8 22.9 108.9 23.1 109.1 23.8C109.6 25.1 110.4 26.9 111 29.1C112.1 33.8 112.7 38.8 112.7 41.5C112.6 44.4 112.3 49.7001 111.2 53.9001Z" fill="#0F64FA"/>
<path d="M154.4 58.9C152.8 57.4 152 55.1 152 52V30.4H163.1V20.2H152V10L141.3 13V20.2V30.4V52C141.3 58.4 143.3 63.5 147.2 66.9C150.3 69.6 154.4 71 159.1 71C160.1 71 161 70.9 162 70.8L163.2 70.7V60.8L161.7 60.9C158.6 61 156 60.4 154.4 58.9Z" fill="#2E313A"/>
<path d="M192 19.6001C177.9 19.6001 166.3 31.4001 166.3 45.9001C166.3 60.5001 177.8 72.0001 192.4 72.0001C204.2 72.0001 212.9 65.9001 216.5 55.3001L217.1 53.5001H205.9L205.5 54.3001C203 59.5001 198.5 62.3001 192.4 62.3001C185.9 62.3001 178.9 57.9001 177.3 49.4001H217.7V48.1001C217.8 39.8001 214.8 32.3001 209.6 27.1001C204.8 22.1001 198.6 19.6001 192 19.6001ZM178.1 39.5001C180.6 32.8001 186.8 29.3001 192 29.3001C198.1 29.3001 203.5 33.4001 205.7 39.5001H178.1Z" fill="#2E313A"/>
<path d="M290.9 58.9C289.3 57.4 288.5 55.1 288.5 52V30.4H299.6V20.2H288.5V10L277.8 13V20.2V30.4V52C277.8 58.4 279.8 63.5 283.7 66.9C286.8 69.6 290.9 71 295.6 71C296.5 71 297.5 70.9 298.5 70.8L299.7 70.7V60.8L298.2 60.9C295 61 292.5 60.4 290.9 58.9Z" fill="#2E313A"/>
<path d="M328.5 19.6001C314.4 19.6001 302.8 31.4001 302.8 45.9001C302.8 60.5001 314.3 72.0001 328.9 72.0001C340.7 72.0001 349.4 65.9001 353 55.3001L353.6 53.5001H342.4L342 54.3001C339.5 59.5001 335 62.3001 328.9 62.3001C322.4 62.3001 315.4 57.9001 313.8 49.4001H354.2V48.1001C354.3 39.8001 351.3 32.3001 346.1 27.1001C341.3 22.1001 335.1 19.6001 328.5 19.6001ZM314.6 39.5001C317.1 32.8001 323.3 29.3001 328.5 29.3001C334.6 29.3001 340 33.4001 342.2 39.5001H314.6Z" fill="#2E313A"/>
<path d="M383.302 19.5996C371.302 19.5996 361.602 29.1996 361.602 40.8996V71.3996H372.202V40.8996C372.202 34.8996 377.202 29.9996 383.302 29.9996C389.402 29.9996 394.402 34.8996 394.402 40.8996V71.3996H405.002V40.8996C405.002 29.0996 395.302 19.5996 383.302 19.5996Z" fill="#2E313A"/>
<path d="M246.802 19.5996C234.802 19.5996 225.102 29.1996 225.102 40.8996V71.3996H235.702V40.8996C235.702 34.8996 240.702 29.9996 246.802 29.9996C252.902 29.9996 257.902 34.8996 257.902 40.8996V71.3996H268.502V40.8996C268.502 29.0996 258.802 19.5996 246.802 19.5996Z" fill="#2E313A"/>
<path d="M480.708 47.1218C480.708 32.8778 470.073 21.268 457 21.268C450.756 21.268 444.415 23.1217 440.025 28.5851V0.389893H429.585V47.1218C429.585 61.4633 440.122 72.9755 455.147 72.9755C470.171 72.9755 480.708 61.4633 480.708 47.1218ZM469 47.2193C469 55.7072 462.854 62.2438 455.244 62.2438C447.634 62.2438 441.488 55.5121 441.488 47.2193C441.488 38.7315 447.634 31.8046 455.244 31.8046C462.756 31.9022 469 38.4388 469 47.2193Z" fill="#828282"/>
<path d="M498.464 0.389893H488.122V71.8048H498.464V0.389893Z" fill="#828282"/>
<path d="M530.56 21.1711C516.706 21.1711 505.584 32.3907 505.584 47.22C505.584 62.0494 516.804 73.0738 530.56 73.0738C544.414 73.0738 555.633 62.0494 555.633 47.22C555.633 32.3907 544.316 21.1711 530.56 21.1711ZM530.56 62.7323C523.145 62.7323 517.096 56.3908 517.096 47.22C517.096 37.8541 523.145 31.3175 530.56 31.3175C537.975 31.3175 544.023 37.8541 544.023 47.22C543.926 56.3908 537.877 62.7323 530.56 62.7323Z" fill="#828282"/>
<path d="M613 47.1209C613 32.7794 602.463 21.072 587.536 21.072C572.512 21.072 561.975 32.7794 561.975 47.1209C561.975 61.3649 572.707 72.8771 585.78 72.8771C591.341 72.8771 597.975 71.8039 602.658 66.438V68.682C602.658 78.8283 595.634 85.5601 587.244 85.5601C582.171 85.5601 577 82.6332 575.341 78.7308H563.048C565 89.1698 575.244 95.9991 587.146 95.9991C603.049 95.9991 612.902 85.7552 612.902 69.2673L613 47.1209ZM601.585 47.2185C601.585 55.7063 595.244 62.6332 587.536 62.6332C579.732 62.6332 573.488 55.9014 573.488 47.2185C573.488 38.2428 579.829 31.5111 587.536 31.5111C595.341 31.5111 601.585 38.5355 601.585 47.2185Z" fill="#828282"/>
<path d="M418.854 72.5853C422.087 72.5853 424.707 69.9645 424.707 66.7316C424.707 63.4987 422.087 60.8779 418.854 60.8779C415.621 60.8779 413 63.4987 413 66.7316C413 69.9645 415.621 72.5853 418.854 72.5853Z" fill="#828282"/>
</svg>
