<svg width="618" height="96" viewBox="0 0 618 96" fill="none" xmlns="http://www.w3.org/2000/svg">
<path d="M122.3 25.3008C121.2 21.0008 119.6 17.6008 117.6 15.2008C115.5 12.6008 112.7 11.3008 109.7 11.3008C105 11.3008 101.6 14.8008 99.3 17.4008C96.3 20.9008 93.2 26.0008 89.6 31.6008C78.6 15.9008 68.8 12.6008 62.3 12.6008C62.3 12.6008 62.3 12.6008 62.1 12.6008C62.1 12.6008 62.1 12.6008 61.9 12.6008C55.5 12.6008 45.4 16.0008 34.4 31.6008C30.8 25.8008 27.8 20.8008 24.7 17.4008C22.6 14.8008 19.2 11.3008 14.5 11.3008C11.5 11.3008 8.6 12.6008 6.6 15.2008C4.5 17.5008 3 21.0008 1.9 25.3008C0.2 32.2008 0 39.5008 0 40.9008C0 42.3008 0 49.7008 1.9 56.6008C3 60.9008 4.6 64.3008 6.6 66.7008C8.9 69.3008 11.5 70.4008 14.7 70.4008C15.1 70.4008 15.6 70.4008 15.6 70.4008C19 70.0008 22.2 68.0008 26 63.3008C28.8 59.9008 31.7 55.3008 34.5 50.4008C38.1 55.6008 41.5 59.7008 44.9 62.9008C50.4 67.9008 56.3 70.6008 61.9 70.6008C67.8 70.6008 73.5 68.0008 78.9 62.9008C82.3 59.7008 85.7 55.8008 89.3 50.4008C92.3 55.3008 95.2 59.9008 97.8 63.3008C101.4 67.8008 104.8 69.8008 108.2 70.4008C108.4 70.4008 108.9 70.4008 109.1 70.4008C112.1 70.4008 115 69.3008 117.3 66.7008C119.4 64.3008 120.9 60.9008 122 56.6008C123.7 49.7008 123.9 42.4008 123.9 40.9008C124.2 39.5008 124 32.2008 122.3 25.3008ZM28 43.7008C27.1 45.5008 25.6 48.3008 23.9 50.8008C22 53.7008 20.4 56.1008 18.9 57.7008C18.2 58.6008 17.4 59.4008 16.7 59.7008C16.2 60.1008 15.8 60.3008 15.8 60.3008C15.8 60.3008 15.8 60.3008 15.6 60.1008C15.4 59.9008 15.2 59.5008 14.7 59.0008C14.1 57.7008 13.4 55.9008 12.8 53.7008C11.9 49.3008 11.3 44.2008 11.3 41.3008C11.3 38.6008 11.8 33.4008 13 28.9008C13.7 26.9008 14.3 24.9008 14.9 23.8008C15.3 23.2008 15.4 22.9008 15.6 22.7008C15.8 22.9008 16.1 23.3008 16.9 23.8008C17.8 24.9008 19.1 26.4008 20.6 28.4008C23.2 32.2008 26.3 37.2008 29.1 41.7008C28.9 42.0008 28.4 42.7008 28 43.7008ZM72.8 54.8008C68.9 58.6008 65.2 60.6008 62 60.6008C58.9 60.6008 55.1 58.6008 51.2 54.8008C48.1 51.7008 44.9 47.5008 41.2 41.8008C45 36.3008 48 32.3008 51 29.4008C54.9 25.6008 58.6 23.7008 62.1 23.7008C65.6 23.7008 69.1 25.5008 73 29.4008C76 32.3008 79.1 36.2008 82.6 41.8008C79.1 47.5008 75.8 51.7008 72.8 54.8008ZM111.2 53.9008C110.7 56.1008 110.1 57.9008 109.3 59.2008C108.9 59.9008 108.6 60.3008 108.4 60.3008C108.4 60.3008 108.2 60.3008 108.2 60.5008C108 60.5008 107.8 60.3008 107.3 59.9008C106.8 59.5008 106 58.8008 105.1 57.9008C103.6 56.2008 102 53.9008 100.1 51.0008C98.4 48.3008 97 45.5008 96 43.9008C95.5 43.0008 95.1 42.2008 94.9 41.7008C97.7 37.1008 100.6 32.2008 103.4 28.4008C104.9 26.4008 106 24.8008 107.1 23.8008C107.6 23.2008 108 22.9008 108.4 22.7008C108.8 22.9008 108.9 23.1008 109.1 23.8008C109.6 25.1008 110.4 26.9008 111 29.1008C112.1 33.8008 112.7 38.8008 112.7 41.5008C112.6 44.4008 112.3 49.7008 111.2 53.9008Z" fill="white"/>
<path d="M154.401 58.9C152.801 57.4 152.001 55.1 152.001 52V30.4H163.101V20.2H152.001V10L141.301 13V20.2V30.4V52C141.301 58.4 143.301 63.5 147.201 66.9C150.301 69.6 154.401 71 159.101 71C160.101 71 161.001 70.9 162.001 70.8L163.201 70.7V60.8L161.701 60.9C158.601 61 156.001 60.4 154.401 58.9Z" fill="white"/>
<path d="M192.001 19.5996C177.901 19.5996 166.301 31.3996 166.301 45.8996C166.301 60.4996 177.801 71.9996 192.401 71.9996C204.201 71.9996 212.901 65.8996 216.501 55.2996L217.101 53.4996H205.901L205.501 54.2996C203.001 59.4996 198.501 62.2996 192.401 62.2996C185.901 62.2996 178.901 57.8996 177.301 49.3996H217.701V48.0996C217.801 39.7996 214.801 32.2996 209.601 27.0996C204.801 22.0996 198.601 19.5996 192.001 19.5996ZM178.101 39.4996C180.601 32.7996 186.801 29.2996 192.001 29.2996C198.101 29.2996 203.501 33.3996 205.701 39.4996H178.101Z" fill="white"/>
<path d="M290.901 58.9C289.301 57.4 288.501 55.1 288.501 52V30.4H299.601V20.2H288.501V10L277.801 13V20.2V30.4V52C277.801 58.4 279.801 63.5 283.701 66.9C286.801 69.6 290.901 71 295.601 71C296.501 71 297.501 70.9 298.501 70.8L299.701 70.7V60.8L298.201 60.9C295.001 61 292.501 60.4 290.901 58.9Z" fill="white"/>
<path d="M328.501 19.5996C314.401 19.5996 302.801 31.3996 302.801 45.8996C302.801 60.4996 314.301 71.9996 328.901 71.9996C340.701 71.9996 349.401 65.8996 353.001 55.2996L353.601 53.4996H342.401L342.001 54.2996C339.501 59.4996 335.001 62.2996 328.901 62.2996C322.401 62.2996 315.401 57.8996 313.801 49.3996H354.201V48.0996C354.301 39.7996 351.301 32.2996 346.101 27.0996C341.301 22.0996 335.101 19.5996 328.501 19.5996ZM314.601 39.4996C317.101 32.7996 323.301 29.2996 328.501 29.2996C334.601 29.2996 340.001 33.3996 342.201 39.4996H314.601Z" fill="white"/>
<path d="M383.302 19.5996C371.302 19.5996 361.602 29.1996 361.602 40.8996V71.3996H372.202V40.8996C372.202 34.8996 377.202 29.9996 383.302 29.9996C389.402 29.9996 394.402 34.8996 394.402 40.8996V71.3996H405.002V40.8996C405.002 29.0996 395.302 19.5996 383.302 19.5996Z" fill="white"/>
<path d="M246.802 19.5996C234.802 19.5996 225.102 29.1996 225.102 40.8996V71.3996H235.702V40.8996C235.702 34.8996 240.702 29.9996 246.802 29.9996C252.902 29.9996 257.902 34.8996 257.902 40.8996V71.3996H268.502V40.8996C268.502 29.0996 258.802 19.5996 246.802 19.5996Z" fill="white"/>
<path d="M480.708 47.1225C480.708 32.8786 470.073 21.2688 457 21.2688C450.756 21.2688 444.415 23.1224 440.025 28.5859V0.390625H429.585V47.1225C429.585 61.464 440.122 72.9763 455.147 72.9763C470.171 72.9763 480.708 61.464 480.708 47.1225ZM469 47.2201C469 55.7079 462.854 62.2445 455.244 62.2445C447.634 62.2445 441.488 55.5128 441.488 47.2201C441.488 38.7322 447.634 31.8054 455.244 31.8054C462.756 31.9029 469 38.4396 469 47.2201Z" fill="white" fill-opacity="0.5"/>
<path d="M498.463 0.390625H488.121V71.8055H498.463V0.390625Z" fill="white" fill-opacity="0.5"/>
<path d="M530.562 21.1719C516.708 21.1719 505.586 32.3914 505.586 47.2208C505.586 62.0501 516.805 73.0745 530.562 73.0745C544.415 73.0745 555.635 62.0501 555.635 47.2208C555.635 32.3914 544.318 21.1719 530.562 21.1719ZM530.562 62.733C523.147 62.733 517.098 56.3915 517.098 47.2208C517.098 37.8549 523.147 31.3183 530.562 31.3183C537.976 31.3183 544.025 37.8549 544.025 47.2208C543.928 56.3915 537.879 62.733 530.562 62.733Z" fill="white" fill-opacity="0.5"/>
<path d="M613.001 47.1211C613.001 32.7796 602.465 21.0723 587.538 21.0723C572.513 21.0723 561.977 32.7796 561.977 47.1211C561.977 61.3651 572.708 72.8773 585.781 72.8773C591.342 72.8773 597.977 71.8042 602.66 66.4383V68.6822C602.66 78.8286 595.635 85.5603 587.245 85.5603C582.172 85.5603 577.001 82.6335 575.342 78.731H563.05C565.001 89.1701 575.245 95.9994 587.147 95.9994C603.05 95.9994 612.904 85.7554 612.904 69.2676L613.001 47.1211ZM601.586 47.2187C601.586 55.7065 595.245 62.6334 587.538 62.6334C579.733 62.6334 573.489 55.9017 573.489 47.2187C573.489 38.2431 579.83 31.5113 587.538 31.5113C595.343 31.5113 601.586 38.5357 601.586 47.2187Z" fill="white" fill-opacity="0.5"/>
<path d="M418.854 72.586C422.087 72.586 424.707 69.9652 424.707 66.7323C424.707 63.4994 422.087 60.8787 418.854 60.8787C415.621 60.8787 413 63.4994 413 66.7323C413 69.9652 415.621 72.586 418.854 72.586Z" fill="white" fill-opacity="0.5"/>
</svg>
